<?xml version="1.0" encoding="utf-8"?>
<!-- Generator: Adobe Illustrator 23.0.5, SVG Export Plug-In . SVG Version: 6.00 Build 0)  -->
<svg version="1.1" xmlns="http://www.w3.org/2000/svg" xmlns:xlink="http://www.w3.org/1999/xlink" x="0px" y="0px"
	 viewBox="0 0 3856 2274" style="enable-background:new 0 0 3856 2274;" xml:space="preserve">
<style type="text/css">
	.st0{fill:#0000FF;stroke:#000000;stroke-width:4.1783;stroke-miterlimit:10;}
	.st1{fill:#F7B97C;}
	.st2{fill:#E5A367;}
	.st3{fill:#21211F;stroke:#020202;stroke-width:2.1287;stroke-miterlimit:10;}
	.st4{fill:#E5A367;stroke:#020202;stroke-width:2.1287;stroke-miterlimit:10;}
	.st5{fill:#262323;}
	.st6{fill:#FCFCFC;}
	.st7{fill:none;stroke:#000000;stroke-width:4.2575;stroke-miterlimit:10;}
	.st8{stroke:#000000;stroke-width:4.2575;stroke-miterlimit:10;}
	.st9{stroke:#000000;stroke-width:2.2112;stroke-miterlimit:10;}
	.st10{fill:#070707;stroke:#000000;stroke-width:1.0644;stroke-miterlimit:10;}
	.st11{fill:none;stroke:#000000;stroke-width:1.0644;stroke-miterlimit:10;}
	.st12{fill:#D3CFCF;stroke:#000000;stroke-width:1.0644;stroke-miterlimit:10;}
	.st13{fill:#FF5555;stroke:#000000;stroke-width:4.2575;stroke-miterlimit:10;}
	.st14{stroke:#000000;stroke-width:2.1287;stroke-miterlimit:10;}
	.st15{fill:none;stroke:#020202;stroke-width:3.1931;stroke-miterlimit:10;}
	.st16{fill:none;stroke:#020202;stroke-width:2.1287;stroke-miterlimit:10;}
	.st17{fill:#0C0C0B;stroke:#020202;stroke-width:2.1287;stroke-miterlimit:10;}
	.st18{fill:#492727;}
	.st19{fill:#FF5555;stroke:#000000;stroke-width:2.2112;stroke-miterlimit:10;}
</style>
<g id="Layer_1">
	<path class="st0" d="M3728.87,1194.14c0,297.19-171.77,568.64-455.13,775.81c-192.29,140.56-435.96,251.53-712.19,320.84
		c-12.49,3.14-25.07,6.18-37.69,9.16H1261.31c-12.64-2.98-25.22-6.02-37.71-9.16c-131.04-32.88-254.73-75.13-369.11-125.47
		c-482.04-212.16-798.21-568-798.21-971.19C56.28,543.95,878.43,16.9,1892.58,16.9C2906.74,16.9,3728.87,543.95,3728.87,1194.14z"/>
</g>
<g id="Layer_2">
	<path class="st1" d="M1412.9,647.99L1412.9,647.99l1.84,2.89l-0.16,0.38l-0.74,1.77l-0.56,1.35l-0.48,1.16l-1.1,2.65l-1.71,4.11
		l-1.35,3.24l-1.08,2.6l-0.5,1.2l-0.52,1.25l-0.39,0.55l-1.01,0.85l-0.88,0.75l-0.99,0.86l-1.77,1.56l-1.93,1.74l-1.77,1.63
		l-2.34,2.22l-1.1,1.07l-1.2,1.18l-1.08,1.09l-1.08,1.1l-1.23,1.28l-0.81,0.87l-1.4,1.53l-1.15,1.29l-1.04,1.2l-1.11,1.32
		l-0.71,0.88l-1.21,1.55l-0.83,1.12l-1.48,2.12l-1.4,2.27l-1.33,2.6l-0.73,1.92l-0.38,1.45v1.02l2.96,1.06l4.01,0.54l8.03,1.35
		l8.03,3.83l9.77,6.59l5.18,5.55l2.11,3.01l4.01,8.08l3.34,16.22l-0.13,19.18l-1.62,20.24l-4.63,19.8l-2.81,4.82l-4.25,6.57
		l-24.99,38.1l-32.45,46.93l-4.36,4.98l-2.83,4.19l-3.02,6.2l-2.44,6.87l-1.96,8.69v5.91v6.25l0.88,4.04l-0.88,2.52l-0.46,1.03
		l1.76,0.16l1.05,0.24l0.5,0.21l0.53,0.41l0.21,0.5l-0.21,0.76l-0.32,0.64l0.1,5.23l0.18,4.74l0.25,4.44l0.31,4.15l1.16,10.03
		l0.89,4.91l1.18,4.62l1.27,3.39l1.75,2.84l-0.58-0.8l1.38,1.46l0.31,0.33l0.19,0.14l0.21,0.12l-0.22,0.43l-0.23,0.31l-0.33,0.46
		l-0.19,0.28l-0.38,0.58l-0.16,0.25l-0.25,0.42l-0.2,0.35l-0.15,0.26l-0.19,0.37l-0.15,0.3l-0.34,0.68l-0.5,1.08l-0.36,0.86
		l-0.29,0.72l-0.33,0.87l-0.56,1.58l-0.29,0.88l-0.3,0.97l-0.33,1.11l-0.17,0.59l-0.33,1.23l-0.57,2.27l-0.44,1.92l-0.2,0.94
		l-0.33,1.63l-0.66,3.57l-0.8,5.08l-1.2,9.86l-0.95,11.17l-0.23,3.57l-0.21,3.74l-0.16,3.33l-0.12,2.98l-0.12,3.67l-0.1,3.59
		l-0.14,3.33v2.4v3.39v1.81v1.91l-0.01,1.95l0.01,1.91l0.01,2l0.03,2.4l0.06,3.51l0.15,5.77l0.13,3.85l0.26,5.85l0.32,5.45
		l0.31,4.25l0.36,4.11l0.56,4.9l0.73,4.32l3.14,4.75l4.35,95.92l4.35,33.36l165.16,158.48l47.81,20.85l4.35,4.17l-4.35,4.17
		l2.24,2.58l0.27,2.07l0.81,6.42l2.27,19.56l2.42,24.18l1.6,19.49l1.55,28.91l0.15,18.27l-1.54,20.28l-2.15,8.26l-0.69,1.47
		l0.02,1.13l0.94,0.78l2.85,2.22l5.32,3.74l3.63,2.33l4.99,2.98l11.69,6.25l9.57,4.54l15.07,6.36l5.43,2.09l12.43,4.45l9.75,3.2
		l15.54,4.6l12.51,3.3l14.37,3.37l12.02,2.49l14.07,2.56l14.02,2.16l14.19,1.81l4.12,0.45l4.98,0.5l8.9,0.78l8.88,0.63l8.13,0.45
		l7.02,0.28h4.62l6.47,0.25h4.25h3.51h2.59l3.15-0.01l2.96-0.05l3.71-0.09l3.89-0.12l4.63-0.19l5.54-0.28l9.06-0.59l7.78-0.65
		l8.51-0.85l10-1.2l11.49-1.66l21.68-3.94l12.89-2.63l21.73-4.65l21.61-4.89l16.2-3.83l12.78-3.11l13.16-3.29l18.93-4.88l17.97-4.79
		l14.26-3.91l21.48-6.06l15.7-4.57l20.38-6.1l23.22-7.19l11.93-3.8l7.65-2.48l8.74-2.88l5.8-1.94l5.84-1.98l1.5-0.52l1.04-0.36
		l0.86-0.3l0.18-0.65l0.18-1.31l0.24-1.73l3.86-28.79l7.47-58.73l7.6-66.25l5.32-58.35l1.31-28.37l-0.84-11.58l-1.11-14l-1.84-27.51
		l-0.33-5.85l-0.58-11.5l-0.38-8.97l-0.34-10.11l-0.1-3.74l-0.22-12.78l-0.01-11.71l0.08-5.59l0.24-8.24l0.21-4.54l0.45-6.89
		l0.75-7.74l0.57-4.25l1.29-6.87l0.51-2l1.04-3.27l1.55-3.68l1.04-2.52l1.02-2.63l1.09-3.03l2.3-7.34l0.76-2.75l1.41-5.61l0.72-3.09
		l4.29-17.6c0,0,6.04-1.31,10.38-13.82s39.12-54.22,39.12-54.22l8.69-29.19l17.39-20.85l21.73-112.6l-13.04-58.39l-86.93-37.53
		l-147.77-104.26l13.04-129.28l-99.96-45.88l52.16-100.09l26.08-16.68l-86.93-37.53l-208.62-41.7l-191.24,58.39l-139.08,125.11
		l-26.08,104.26v12.51l4.35,8.34V647.99z"/>
	<path class="st2" d="M1719.31,720.98c0,0,241.22,68.81,67.37,231.46s-4.35,125.11-4.35,125.11l-286.85,175.16
		c0,0-82.58-58.39-82.58-137.63s-104.31-145.97-43.46-216.86s82.58-183.5,86.93-208.52c4.35-25.02,8.69-141.8,69.54-216.86
		s152.12-150.14,212.97-145.97c60.85,4.17,356.39,29.19,369.43,62.56s-234.7,100.09-299.89,150.14
		c-65.19,50.05-134.73,100.09-134.73,100.09L1719.31,720.98z"/>
	<path d="M1663.46,640.66c0,0,92.18,3.31,96.65,36.51c4.47,33.19-44.79,43.24-44.79,43.24"/>
	<path class="st3" d="M1576.33,1586.89l-0.04,0.39l-0.04,0.16l-3.1,26.11c0,0.05,0,0.09-0.04,0.11l-1.56,3.96
		c0,0-152.13,208.52-160.82,208.52s13.05,25.03,0,41.72c-13.02,16.67-26.07,41.7-26.07,54.2c0,12.53-13.05,45.87-17.38,45.87
		c-4.36,0,13.02,4.19,26.07,62.56c3.1,17.84-59.81,164.37-96.38,247.45c-1.39,3.16-2.73,6.21-4.04,9.16h-29.23l3.44-9.16
		l34.93-93.13l47.83-116.79l24.85-67.6l1.22-3.3l-13.6-4.28l-10.53-16.6l-0.21-0.41c0-0.02-0.02-0.05-0.02-0.07
		c-0.04-0.07-0.06-0.11-0.09-0.18c0-0.02-0.02-0.02-0.02-0.05l-23.34-40.94l-8.69-208.54l121.68-91.73l40.68-28.37l7.13-13.33
		l9.61-6.8c0,0,0.04,0,0.09-0.05l0.13-0.14l0.17-0.27c0.06,0,0.06-0.05,0.06-0.09l7.52-11.72l16.55-20.01l13.69-15.14l8.97-12.25
		l6.9-7.21c0.41-0.48,0.75-0.94,1.11-1.37l6.9-9.48l4.25-5.13l3.52-4.12c0.21-0.3,0.41-0.5,0.62-0.76l1.69-0.92l0.83-0.46
		l0.96,14.17c-0.04,0.05,0,0.05,0,0.05l0.77,12.05v0.16c0.04,0,0.04,0.05,0,0.09l0.17,2.43l1.75,24.27l0.04,0.78l0.51,7.65
		l0.09,3.57v0.41l0.45,23.36v0.34L1576.33,1586.89z"/>
	<path class="st4" d="M2145.25,1108.83c0,0-5.84,0-5.55-11.49c0.06-2.53,0.42-5.61,1.21-9.36c1.09-5.21,2.72-7.82,4.55-8.73
		c5.5-2.74,12.83,9.77,12.83,12.9c0,4.17,17.39,4.17,17.39,0c0-4.17,8.69-12.51,13.04-16.68c4.35-4.17,13.04,0,26.08-4.17
		c30.42-8.34,39.12-45.88,43.46-58.39s8.69-50.05-4.35-83.41s17.39-54.22,17.39-54.22s26.08,33.36,0,112.6
		c-13.04,79.24-47.81,91.75-60.85,100.09c-17.39,0-21.73,20.85-30.42,25.02c-8.69,4.17-17.39,4.17-30.42,0s-26.08,20.85-39.12,20.85
		s-36.57-1.9-31.32-19.72c3.73-12.66,13.84-15.64,19.38-16.46c3.21-0.47,6.46-0.45,9.91-0.33l12.48,3.07l6.94,4.25"/>
	<polygon class="st2" points="2187.57,886.51 2175.9,918.51 2168.83,942.45 2165.98,959.7 2155.75,968.47 2143.08,973.29 
		2139.49,977.5 2137.75,988.05 2137.75,998.76 2138.15,1007.9 2143.08,1014.99 2135.68,1014.99 2128.38,1017.67 2117.34,1027.34 
		2109.82,1041.63 2110.48,1050.44 2115.97,1054.27 2121.34,1052.53 2121.34,1056.7 2120.78,1058.3 2124.76,1065.84 2130.04,1069.21 
		2133.95,1071.1 2140.03,1068.75 2144.76,1064.58 2148.7,1057.51 2152.19,1049.82 2157.62,1046.7 2166.98,1046.12 2175.03,1047.5 
		2186.54,1052.53 2194.12,1054.48 2199.3,1054.48 2207.74,1051.44 2216.81,1044.68 2220.92,1040.7 2226.44,1034.62 2234.09,1025.91 
		2239.9,1018.72 2244.83,1010.26 2246.06,1002.31 2244.04,993.19 2243.04,985.8 2238.99,971.78 2240.73,957.94 2243.03,937 
		2241.75,924.95 2237.33,914.9 2230,906.56 2216,895.4 2207.6,889.9 2198.24,885.18 2190.54,883.36 2190.88,885.71 	"/>
	<path class="st2" d="M2231.43,1153.65c1.89-7.84-8.59-12.74-13.82-6.45c-29.55,35.53-39.76,105.51-126.69,213.94
		c-65.19,50.05-163.47,5.12-180.86,0.46c-1.13-0.3-2.3-0.35-3.46-0.15l-208.33,35.28c-5.43,0.92-8.22,6.73-5.42,11.29
		c14.98,24.31,47.53,88.19-19.17,94.93c-52.58,5.31-79.69,3.86-92.45,2.1c-5.02-0.69-9.36,3.34-8.89,8.19l0.94,9.73l1.7,21.71
		l0.79,13.65l0.4,9.86l0.22,12.76l-0.3,13.02c0,0.18-0.01,0.35-0.03,0.53l-1.1,11.47c-0.03,0.35-0.09,0.71-0.18,1.05l-1.61,6.51
		c-0.26,1.06-0.28,2.16-0.06,3.22l0,0c0.4,1.9,1.54,3.59,3.19,4.71l6.39,4.31c0.18,0.12,0.36,0.23,0.55,0.34l17.24,9.71
		c0.18,0.1,0.36,0.19,0.54,0.28l13.74,6.41c0.13,0.06,0.25,0.11,0.38,0.17l16.49,6.68l16.13,5.69l13.83,4.33l15.89,4.4l17.36,4.18
		l13.28,2.77l8.33,1.56l7.36,1.26l6.98,1.1l20.05,2.65l25.46,2.26l16.11,0.79l37.35,0.29c0.26,0,0.51-0.01,0.77-0.03l30.97-2.68
		c0.18-0.02,0.37-0.04,0.55-0.07l42.74-6.61c0.15-0.02,0.3-0.05,0.45-0.08l44.36-9.43l50.82-12.11l34.35-8.91l30.55-8.39l25.3-7.27
		l54.38-16.66l27.81-9.14c0.35-0.11,0.68-0.25,1.01-0.41l2.54-1.24c2.37-1.15,3.98-3.38,4.27-5.92l1.57-13.67l4.28-29.67l5.15-40.89
		l3.51-29.31l1.8-15.69l3.87-36.15l4.62-55.4l0.66-18.24c0.01-0.26,0-0.52-0.01-0.77l-3.94-55.62c-0.04-0.57-0.01-1.14,0.08-1.7
		l10.38-62.44c0.03-0.17,0.06-0.34,0.1-0.51L2231.43,1153.65z"/>
	<path class="st2" d="M2232.73,827.78l-100.07,28.01c-1.65,0.46-2.97,1.65-3.56,3.2l-7.98,21.16c-0.23,0.61-0.34,1.27-0.32,1.92
		l0.46,14c0.05,1.38,0.66,2.68,1.71,3.62l9.64,8.62c0.44,0.39,0.94,0.71,1.49,0.95l5.75,2.44c3.56,1.51,7.56-0.99,7.56-4.72v-3.02
		c0-1.02,0.31-2.02,0.9-2.87l7.43-10.69c0.24-0.35,0.52-0.66,0.84-0.94l15.88-13.96c0.16-0.14,0.33-0.27,0.5-0.39l22.08-15.18
		c0.12-0.08,0.24-0.16,0.36-0.23l25.01-14.42c0.12-0.07,0.25-0.14,0.38-0.2l13.4-6.39c0.09-0.04,0.18-0.09,0.27-0.14l2.42-1.33
		c4.05-2.21,3.46-7.98-0.96-9.39l0,0C2234.9,827.5,2233.78,827.48,2232.73,827.78z"/>
	<polygon class="st5" points="1721.49,731.4 1734.53,735.57 1743.22,739.74 1751.91,743.91 1756.26,748.09 1756.26,752.26 
		1743.22,752.26 1730.18,756.43 1721.49,756.43 1717.14,756.43 1717.14,756.43 1715.67,748.82 1717.14,735.57 1721.49,727.23 	"/>
	<path d="M1760.6,752.26c2.81-1.28-36.95-22.94-42.8-20.16c-2.86,1.36,1.51-11.11,1.51-11.11S1756.26,743.91,1760.6,752.26z"/>
	<ellipse class="st6" cx="1723.66" cy="750.17" rx="10.87" ry="6.26"/>
	<path class="st7" d="M2180.02,1596.77c0,0,26.08-187.67,26.08-246.06c0,0,56.5,4.17,99.96-187.67s165.16-179.33,173.85-433.73
		c8.69-254.4-39.12-329.47-39.12-329.47s-130.39-66.73-143.43-66.73s-10.84-58.34-117.35-145.97
		c-104.66-86.1-96.86-37.06-130.39-29.19c0,0-39.12-58.39-95.62-29.19c-56.5,29.19-4.48-77.16-95.62-16.68
		c-57.38,38.08,35.53-128.07-152.12-45.88c0,0-56.5-8.34-78.23,45.88L1615,82.9l-21.73,33.36c0,0-26.08-12.51-30.42,8.34
		c-4.35,20.85-39.12-41.7-95.62,91.75c0,0-8.69,16.68-13.04,16.68c-4.35,0,0,12.51,0,12.51s-21.73-8.34-26.08-8.34
		c-4.35,0-21.73,8.34-21.73,8.34s8.69,29.19,17.39,25.02c4.35-12.51,0-20.85,8.69-12.51c8.69,8.34,13.04,20.85,8.69,25.02
		c-4.35,4.17-8.69-4.17-13.04-8.34c-4.35-4.17-13.04,4.17-13.04,4.17s4.35,16.68,0,20.85c-4.35,4.17-47.81,0-8.69,45.88
		s-30.42,20.85-30.42,29.19s-43.46,20.85-39.12,108.43c4.35,87.58,43.46,166.82,78.23,166.82l-0.87,2.09l-1.01,2.42l-0.56,1.35
		l-1.11,2.67l-2.05,4.92l-3.09,7.41c0,0-30.42,25.02-30.42,37.53c-21.73-4.17-86.93,16.68-104.31,54.22
		c-17.39,37.53-17.39,54.22-17.39,54.22h-21.73l-4.35,20.85l13.04,16.68c0,0,5.21,124.91,56.5,112.6
		c52.16-12.51,43.46-4.17,43.46-4.17s0,41.7,8.69,45.88c-17.39,20.85-13.04,133.45-8.69,137.63c-4.35,12.51,0,45.88,4.35,50.05
		c-4.35,12.51-8.69,75.07,0,83.41c-4.35,20.85-4.35,79.24,8.69,91.75c13.04,12.51,43.46,91.75,134.73,100.09
		c95.62,0,78.23-4.17,78.23-4.17s17.39,129.28,4.35,150.14c39.12,33.36,182.54,83.41,330.32,54.22
		C2049.63,1642.65,2180.02,1596.77,2180.02,1596.77z"/>
	<path class="st8" d="M1245.57,967.03"/>
	<path class="st9" d="M1105.44,1088.32"/>
	<path class="st10" d="M2206.1,1350.72c0,0-13.04-137.63,0-166.82c13.04-29.19,8.69-50.05,26.08-70.9s43.46-75.07,52.16-87.58
		c8.69-12.51,34.77-100.09,13.04-145.97c-21.73-45.88-60.85-54.22-122.35-31.23l-8.69,8.34l-29.77-27.15h30.42l-4.35-20.85
		c0,0-130.39-41.7-143.43-45.88c-13.04-4.17-26.08-45.88-21.73-58.39c4.35-12.51-113-104.26-104.31-120.94
		c8.69-16.68,8.69-16.68,26.08-29.19s0-91.75,126.04-137.63c-95.62-20.85-91.27-4.17-152.12-25.02
		c-60.85-20.85-169.5-29.19-221.66-12.51s-143.43,62.56-186.89,116.77c-43.46,54.22-69.54,150.14-69.54,154.31
		s-15.37-4.84-15.37-4.84l-20.56-20.54l-12.02-19.97l-7.73-16.86l-2.13-5.35l-11.73-36.7l-4.35-29.19l-2.58-11.92l-1.29-51.33
		l3.87-20.16l4.02-15.55l8.89-17.34l16.11-18.26l5.52-6.15l4.03-2.93l21.31,1.31l6.98-0.15l5.02-1.01l4.28-3.02l0.86-4.69l1.21-3.12
		l-5.38-6.57l-5.48-8.03l-4.35-8.34l-3.18-0.38l-6.62-9.99l-3.23-10.48v-4.17l1.76-5.89l9.05-5.09l6.71-1.64l5.14-1.28l3.42-2.79
		v-4.17l-0.66-6.67l-0.72-4.39l0.12-4.34l4.36-3.06l5.71-1.37l4.16,3.32l3.83,4.44l4.76,3.02l3.2-2.47l1.34-5.17v-4.17l-4.35-8.34
		l-5.2-4.92l-3.38-3.2l-0.11-0.22l-3.14-1.03l-1.03,4.12l-0.81,5.69l-1.2,4.77l-2.17,1.43l-3.36-1.43l-1.33-5.22h-4.35v-8.34
		l-4.35-4.17l-1.26-6.69l6.37-2.9l5.03-2.12l7.24-0.81h8.69l6.39,1.48l8.44,3.01l3.43,1.28l-0.87-1.59l4.35,4.17l-4.35-4.17v-8.34
		l4.21-2.99l3.59-3.84l5.14-7.85l4.45-10.34l8.69-16.68l9.34-18.56l6.16-10.13l3.7-5.52l7.02-9.26l5.17-5.82l4.05-3.95l6.04-4.9
		l5.11-3.21l5.56-2.53l9.32-2h5.02l4.8,0.59l5.17,0.94l3.7,0.29l1.6-0.32l1.87-1.5l0.69-1.41l2.6-3.61v-4.17l3.25-3.09l4.19-2.02
		l7.43-0.61l6.86,1.55l4.54,1.25l-0.2,2.92l9.49-13.31l6.35-9.75l7.5-11.52l13,26.95l2.54-3.09l5.02-9.18l7.42-9.73l10.94-9.64
		l6.75-4.17l2.56-1.32l8.37-3.45l10.47-2.79l7.84-1.16h10.41l8.69,2.1l1.14-3.52l6.65-2.8l35.46-12.61l23.98-5.26h22.65l17.76,5.76
		l12.12,14.59l6.71,32.25l4.22,18.29l3.74,2.65l5.54-0.42l7.79-3.04l4.25-3.45l8.79-4.89l8.69-4.17l6.2-4.11l3.91-1.57l7.27-2.66
		h8.69l7.05,2.66l3.49,3.45l2.5,6.4l4.35,12.51l4.41,8.54l5.15,5.47l2.7,1.11l5.71,0.37l4.32-0.84l7.01-2.62l4.97-2.45l5.07-2.27
		l6.66-2.35l6.68-1.62l6.18-0.86l8.01-0.18l6.98,0.7l5.46,1.13l3.67,1.04l6.3,2.32l5.07,2.38l4.96,2.78l3.82,2.46l6.88,5.16
		l3.44,2.97l5.44,5.25l3.51,3.81l3.63,9.41l4.43-2.7l-3.13-0.62l6.23-0.48l5.2-2.59l9.01-6.12l13.04-8.34h21.73l12.57,4.17
		l32.4,19.74l33.72,26.23l19.58,17.05l32.83,33.14l28.72,37.16l13.84,23.43l16.4,31.5l9.87,3.59l17.24,6.51l31.55,14.51l28.37,13.72
		l41.49,20.65l12.6,6.38l3.49,0.8l4.35,8.34l10.56,24.67l8.69,32.13l2.16,9.91l6.15,34.76l3.45,26.22l2.24,21.83l3.01,42.77l1.26,33
		v6.4l1.59,26.89l-1.36,32.73l-1.33,44.03l-3.88,45.95l-2.2,16l-6.35,33.35l-15.17,49.87l-14,31.27l-23.98,40.41l-49.6,69.91
		l-34.29,61.47l-16.41,44.81l-12.53,49.81l-30.99,93.83l-25.29,44.54l-20.98,21.12l-9.54,5.17L2206.1,1350.72z"/>
	<path class="st11" d="M1417.25,652.16"/>
	<path class="st12" d="M1751.91,864.86"/>
	<path class="st13" d="M1115.18,1025.42"/>
	<path class="st13" d="M1375.96,708.47c0,0,47.81,0,47.81,50.05s-8.69,58.39-8.69,58.39s-56.5,87.58-65.19,95.92
		c-7.73,7.42-15.46,31.34-10.96,42.4c0.82,2.02-0.28,4.28-2.44,4.9c-10.24,2.94-16.36,3.56-16.36,3.56l-18.5,2.73h-16.45
		l-10.67-5.56l-12.32-15.09l-10.69-26.23l-8.55-44.4l-1.56-17.63c0,0,16.34-67.93,21.13-73.03c4.79-9.28,9.5-22.43,11.49-26.28
		c1.99-3.85,16.65-24.31,26.71-26.59l15.63-8.94l8.36-3.82l5.63-2.26l6.98-2.47l4.85-1.51l6.55-1.75l4.95-1.1l4.91-1.29l6.64-0.35
		l4.13-0.17L1375.96,708.47z"/>
	<polygon class="st8" points="1423.77,743.21 1489.53,727.6 1488.96,720.98 1423.77,737.66 	"/>
	<polygon class="st14" points="1249.92,821.07 1241.23,850.26 1239.87,852.69 1235.64,847.28 1228.37,836.88 1230.61,826.12 
		1232.53,816.9 1249.92,816.9 	"/>
	<path d="M1757.66,749.59c0,0-42.69,8.92-42.69,4.75s-2.17,9.76-2.17,9.76s43.69-6.03,45.64-9.76
		C1762.78,746,1757.66,749.59,1757.66,749.59z"/>
	<path class="st10" d="M1760.6,756.43"/>
	<path class="st15" d="M2132.21,1096.32c0,0-78.23-20.85-52.16,45.88c34.77,58.39,182.54-54.22,182.54-54.22"/>
	<path class="st16" d="M2127.86,862.77c0,0-17.67,25.87,4.48,44.5c5.1,4.29,12.74,2.64,16.31-4.12
		c19.43-36.84,92.08-67.3,92.08-67.3"/>
	<path class="st16" d="M2188.71,883.63c0,0-21.73,54.22-21.73,70.9c0,7.57-5.36,11.7-11.23,13.96c-7.06,2.72-14.85,2.72-14.85,2.72
		s-8.69,33.36,0,41.7c-26.08,4.17-43.46,41.7-21.73,41.7c8.69,20.85,13.04,16.68,13.04,16.68s13.04,0,17.39-16.68
		c4.35-16.68,34.77-4.17,34.77-4.17s13.04,16.68,39.12-12.51c26.08-29.19,26.08-29.19,17.39-54.22
		c-8.69-25.02,17.39-54.22-13.04-79.24C2197.4,879.45,2188.71,883.63,2188.71,883.63z"/>
	<path class="st16" d="M2132.21,937.84"/>
	<path class="st16" d="M2136.56,937.84c0,0-14.06,42.85,21.22,29.77"/>
	<path class="st2" d="M2108.31,944.1c0,0-21.73,45.88-6.52,60.47c6.52,18.77-15.21,22.94-10.87,27.11
		c4.35,4.17,13.04-12.51,17.39-16.68c4.35-4.17,30.42-20.85,17.39-50.05C2121.34,935.76,2125.69,939.93,2108.31,944.1z"/>
	<path class="st17" d="M1569.71,1497.1c-0.17,0.3-0.43,0.6-0.68,0.96c-0.21,0.25-0.41,0.46-0.62,0.76c-2.6,3.37-7.6,9.76-14.33,18.3
		c-0.13,0.14-0.23,0.3-0.34,0.44c-0.36,0.44-0.7,0.89-1.11,1.37c-12.98,16.46-32.07,40.33-53.61,66.34c0,0.05,0,0.09-0.06,0.09
		c-0.09,0.16-0.21,0.27-0.3,0.41c-0.04,0.05-0.09,0.05-0.09,0.05c-5.42,6.62-11.04,13.35-16.74,20.13
		c-55.92,66.52-121.34,138.47-142.12,137.56c48.64,13.92,31.9,70.14,31.9,70.14s30.43,45.87,17.4,50.04
		c-13.05,4.19-21.74,29.2-21.74,37.56c0,8.34-8.69,50.04-17.38,50.04c-4.53,0-3.18,12.39,1.6,24.27c0,0.02,0.02,0.02,0.02,0.05
		c0.02,0.07,0.04,0.11,0.09,0.18c0,0.02,0.02,0.05,0.02,0.07c2.65,6.57,6.38,12.96,10.74,17.01c2.86,2.66,6,4.28,9.25,4.28
		c1.71,0,2.71,1.17,3.14,3.3c4.57,20.06-39.99,127.41-59.64,180.22c-10.68,28.67-27.63,66.36-42.13,97.3
		c-1.45,3.14-2.88,6.18-4.29,9.16H735.67c0.73-2.95,1.49-6,2.28-9.16c8.31-33.11,19.77-77.68,32.99-125.47
		c36.38-131.53,85.88-287.59,118.25-297.14l-4.36-12.5c0,0,39.12-58.39,69.54-66.73c30.43-8.34,217.32-45.87,234.7-54.23
		c17.38-8.34,186.89-58.37,239.05-100.09c43.45-20.84,52.14-20.84,52.14-20.84l8.69-8.34l8.69-8.36l8.88-10.72l16.55-20.01
		l22.65-27.39l14.9-18.07l4.25-5.13L1569.71,1497.1z"/>
	<path class="st17" d="M3229.68,2277.94h-751.69c-12.49,3.14-25.07,6.18-37.69,9.16h-398.57c-0.28-3.11-0.53-6.18-0.79-9.16
		c-11.51-138.11,4.33-131.49,4.33-193.23c-39.12,45.87-104.3,50.03-104.3,50.03l-60.85-145.96c0,0,121.71-95.93,130.4-87.57
		c8.69,8.34,104.3-41.72,134.73-45.89c30.43-4.17,121.71-83.4,86.92-112.6c-34.76-29.2-52.14-145.96-52.14-145.96s0-0.14,0.04-0.39
		v-0.11l0.04-0.05c0,0-0.04-0.05,0-0.09c0-0.57,0.04-1.58,0.17-3v-0.05c2.48-32.88,20.69-274.66,25.43-245.66
		c0,0.07,0.04,0.16,0.04,0.27c0,0.05,0,0.05,0,0.09c0,0,0,0.05,0,0.09c0.04,0.05,0.04,0.05,0.04,0.07c0,0.09,0.04,0.18,0.04,0.23
		c0.04,0.27,0.09,0.62,0.13,0.98c0.04,0.46,0.09,1.01,0.13,1.56c4.33,50.04,160.8,237.72,191.23,258.56
		c30.43,20.86,352.05,112.6,378.14,100.09c26.07-12.5,99.95,0,134.73,33.36c34.76,33.36,156.47,54.23,156.47,54.23
		c56.5,41.7,91.26,95.9,91.26,95.9c12.68,20.15,23.34,41.72,32.26,64.23C3230.92,2060.06,3235.21,2182.68,3229.68,2277.94z"/>
	<path class="st1" d="M1452.02,923.24c0,0-30.42,8.34-4.35,20.85c26.08,12.51,30.42,12.51,30.42,12.51l-4.35,12.51
		c0,0,4.35,16.68,21.73,12.51c17.39-4.17,26.08-16.68,4.35-37.53C1478.1,923.24,1452.02,923.24,1452.02,923.24z"/>
	<path class="st1" d="M1417.25,998.31l13.04,16.68c0,0,4.35,12.51,0,16.68c-4.35,4.17-13.04,0-13.04,0l-34.77,8.34l-34.77-50.05
		l-4.35-25.02c0,0-13.04-50.05,17.39-29.19S1417.25,998.31,1417.25,998.31z"/>
	<path class="st14" d="M1445.5,971.2c0,0,34.77,8.34,43.46-12.51c-30.42-25.02-56.5-8.34-56.5-8.34s-26.08,12.51-17.39,20.85
		C1423.77,979.55,1445.5,971.2,1445.5,971.2z"/>
	<path class="st14" d="M1384.65,1008.74c0,0-21.73-20.85-26.08-29.19c0,8.34,4.35,25.02,13.04,29.19
		C1380.31,1012.91,1384.65,1008.74,1384.65,1008.74z"/>
	<path class="st18" d="M1599.79,1098.4c0,0-21.73-75.07-60.85-66.73c-39.12,8.34-160.81,50.05-160.81,50.05l2.17,72.2l15.58,6.77
		l33.72-2.96c0,0,170.19-34.31,176.71-48.91C1612.83,1094.23,1599.79,1098.4,1599.79,1098.4z"/>
	<path class="st8" d="M2128.14,863.01c-0.21-0.17-0.4-0.28-0.66-0.35c-4.04-1.18-39.24-10.47-47.43,20.97
		c-8.69,33.36-39.12,258.57-34.77,271.08c4.35,12.51-4.35,58.39,0,70.9c4.35,12.51-65.19,112.6-152.12,154.31
		c-86.93,41.7-286.85,83.41-325.97,87.58c-39.12,4.17-53.49,4.06-53.49,4.06l-30.22-0.5c-0.11,0-0.22-0.01-0.33-0.03l-16.07-2.92
		c-0.07-0.01-0.14-0.03-0.22-0.05l-15.31-4.57c-0.05-0.02-0.1-0.03-0.15-0.05l-5.93-2.3c-0.07-0.03-0.14-0.06-0.21-0.1l-22.92-12.14
		c-0.11-0.06-0.22-0.13-0.32-0.21l-24.32-19.85c-0.07-0.06-0.14-0.13-0.21-0.2l-12.92-14.32c-0.04-0.04-0.07-0.08-0.1-0.13
		l-10.32-13.68l-6.74-10l-11.25-16.75c-0.02-0.03-0.05-0.07-0.07-0.1l-5.06-6.57c-0.11-0.14-0.19-0.29-0.25-0.45l-2.7-6.85
		c-0.04-0.1-0.07-0.21-0.09-0.32l-2.44-12.83c-0.01-0.05-0.02-0.09-0.02-0.14l-2.37-22.01c-0.01-0.05-0.01-0.1-0.01-0.15l-0.2-8.08
		l0.15-11.54l1.04-15.55c0-0.03,0.01-0.07,0.01-0.1l0.55-4.32l0.84-4.9l-1.97-3.34l-1.49-5.68c-0.02-0.07-0.03-0.14-0.04-0.21
		l-0.78-5.65c-0.01-0.08-0.02-0.15-0.02-0.23l-0.05-5.68c0-0.04,0-0.09-0.01-0.13l-0.63-7.46c-0.01-0.13-0.01-0.26,0.01-0.39
		l0.61-4.48c0.01-0.08,0.02-0.16,0.02-0.24v-8.22l1.09-22.65c0-0.06,0.01-0.12,0.02-0.18l2.45-16.05l0.79-2.82l-3.34-8.89
		c-0.06-0.15-0.09-0.3-0.11-0.46l-1.54-15.74c0-0.04-0.01-0.09-0.01-0.13l-0.44-19.95c0-0.15,0.01-0.3,0.05-0.45l1.04-4.42
		c0,0,21.73-91.75,56.5-104.26c34.77-12.51,26.08,4.17,47.81-20.85c21.73-25.02,95.62-4.17,108.66-8.34
		c13.04-4.17,26.08-20.85,56.5,16.68c24.53,30.26,37.76,71.37,41.96,86.16c0.56,1.96,0.95,3.45,1.2,4.4
		c0.18,0.71-0.13,1.45-0.77,1.85l-57.01,35.17c-1.24,0.76-2.87,0-2.97-1.41c-0.96-13.72-5.24-68.31-12.83-71.96
		c-8.69-4.17-13.04-45.88-108.66-25.02c-95.32,20.79-91.3,12.56-91.27,95.14c0,0.49,0.2,0.98,0.57,1.33l7.56,7.25
		c0.36,0.35,0.57,0.82,0.57,1.31v40.17c0,0.49-0.2,0.96-0.57,1.31l-15.86,15.22c-0.57,0.54-0.73,1.36-0.4,2.06
		c1.77,3.76,6.75,15.55-0.56,15.55c-5.92,0-11.83-1.93-15.01-3.17c-1.21-0.47-2.53,0.32-2.63,1.57c-0.6,7.66-1.11,29.36,13.29,22.45
		c17.39-8.34,56.5-33.36,56.5-37.53c0-4.17-13.04-50.05,13.04-54.22s34.77-12.51,43.46,29.19c8.43,40.42,98.52-24.94,104.04-29
		c0.19-0.14,0.33-0.3,0.46-0.5l12.59-20.13c0.17-0.27,0.41-0.5,0.7-0.66l60.3-33.06c0.07-0.04,0.15-0.07,0.22-0.11l259.56-102.36
		c35.41-13.96,60.04-45.36,64.2-81.88c6.77-59.39,16.69-142.52,19.47-145.19c4.27-4.1,117.66,40.13,138.09,41.66
		c0.63,0.05,1.2,0.37,1.53,0.89c9.77,15.37,19.44,23.74,23.52,26.88c1,0.77,0.94,2.23-0.11,2.94c-4.91,3.31-17.11,11.04-23.94,11.04
		C2133.48,866.94,2129.23,863.9,2128.14,863.01z"/>
	<path class="st7" d="M1571.54,1125.51c0,0-34.77,12.51-82.58,20.85s-134.73,33.36-104.31-12.51s191.24-33.36,191.24-33.36"/>
	<path class="st13" d="M1714.97,683.44c0,0,13.04-33.36-34.77-54.22c-47.81-20.85-126.04,20.85-139.08,29.19
		c-13.04,8.34-69.54,50.05-60.85,154.31s91.27,91.75,104.31,91.75c11.5,0,107.56-25.96,130.04-149.47c3-16.5,4.69-34.73,4.69-54.88
		C1710.62,695.95,1714.97,683.44,1714.97,683.44z"/>
	<path class="st8" d="M2163.89,814.6l2.68,12.85l-20.72,1.96l-2.77-6.26c0,0-8.69,0-21.73-4.17s-126.04-41.7-126.04-41.7
		s-52.16-16.68-60.85-20.85c-8.69,4.17-69.54-8.34-78.23-16.68c-8.69-4.17-13.04-8.34-17.39-12.51
		c-4.35-4.17-86.93-33.36-86.93-33.36s-17.39-4.17-17.39,0c-4.35,4.17-13.04,8.34-13.04,8.34l-8.69-12.51v-4.17
		c0,0,8.69-12.51,17.39-16.68c8.69-4.17,52.16,12.51,52.16,12.51l2.17-2.09c0,0,8.69,4.17,6.52,6.26
		c13.04,4.17,39.12,12.51,47.81,16.68c8.69,4.17,65.19,16.68,91.27,37.53c52.16,8.34,138.23,38.65,138.23,38.65l92.63,29.63
		L2163.89,814.6z"/>
	<path class="st19" d="M1353.12,1990.56"/>
	<path class="st19" d="M1355.25,2022.62"/>
	<path class="st0" d="M2477.99,2277.94c-12.49,3.14-25.07,6.18-37.69,9.16H735.67c0.73-2.95,1.49-6,2.28-9.16H2477.99z"/>
</g>
</svg>
